<?xml version="1.0" encoding="utf-8"?>

<!DOCTYPE svg PUBLIC "-//W3C//DTD SVG 1.1//EN" "http://www.w3.org/Graphics/SVG/1.1/DTD/svg11.dtd">
<!-- Uploaded to: SVG Repo, www.svgrepo.com, Generator: SVG Repo Mixer Tools -->
<svg version="1.1" id="_x32_" xmlns="http://www.w3.org/2000/svg" xmlns:xlink="http://www.w3.org/1999/xlink" 
	 viewBox="0 0 512 512"  xml:space="preserve">
<style type="text/css">
	.st0{fill:#000000;}
</style>
<g>
	<path class="st0" d="M489.4,64.386V24.145h-24.145h-185.11V0h-48.29v24.145H46.745H22.6v40.241h24.145v249.496H22.6v40.241h24.145
		h418.51H489.4v-40.241h-24.145V64.386H489.4z M78.938,313.882V64.386h354.124v249.496H78.938z"/>
	<path class="st0" d="M333.803,459.686c-0.77,0-1.501,0.165-2.256,0.228l-58.428-61.234l-0.503-0.007l0.503-0.692h-1.022v-35.808
		h-32.193v37.223l-59.882,60.472c-0.613-0.039-1.202-0.181-1.824-0.181c-14.446,0-26.157,11.711-26.157,26.157
		c0,14.446,11.711,26.157,26.157,26.157c14.446,0,26.157-11.711,26.157-26.157c0-4.103-1.029-7.93-2.712-11.381l55.01-53.736
		l53.508,54.09c-1.572,3.364-2.515,7.074-2.515,11.027c0,14.446,11.711,26.157,26.157,26.157c14.446,0,26.157-11.711,26.157-26.157
		C359.959,471.397,348.248,459.686,333.803,459.686z"/>
	<rect x="127.228" y="185.755" class="st0" width="64.386" height="104.627"/>
	<rect x="223.807" y="145.514" class="st0" width="64.386" height="144.868"/>
	<rect x="320.386" y="105.272" class="st0" width="64.386" height="185.11"/>
</g>
</svg>